<?xml version="1.0" encoding="utf-8"?>
<!-- Generator: Adobe Illustrator 19.2.0, SVG Export Plug-In . SVG Version: 6.00 Build 0)  -->
<svg version="1.1" id="Слой_1" xmlns="http://www.w3.org/2000/svg" xmlns:xlink="http://www.w3.org/1999/xlink" x="0px" y="0px"
	 viewBox="0 0 190 60" style="enable-background:new 0 0 190 60;" xml:space="preserve">
<style type="text/css">
	.st0{fill:#0653A6;}
	.st1{opacity:0.4;fill:#0653A6;}
</style>
<g>
	<path class="st0" d="M61.6,12.3h7.5v13.2c2-0.7,3.4-1,5.1-1c6.7,0,11.1,4.7,11.1,11.9c0,8.5-5.4,12.9-16,12.9
		c-2.5,0-4.5-0.2-7.8-0.7V12.3z M69.1,43.2c0.6,0,0.9,0,1.4,0c4.8,0,7.2-2.1,7.2-6.4c0-4-2-6.3-5.5-6.3c-1.1,0-2,0.1-3,0.5V43.2z"/>
	<path class="st0" d="M97.8,25v13.8c0,3.1,0.9,4.1,3.9,4.1c1,0,2.1-0.1,3.1-0.3V25h7.5v23.1l-0.9,0.1c-4.1,0.7-7,1-10,1
		c-4.1,0-6.9-0.8-8.6-2.4c-1.8-1.7-2.4-3.7-2.4-8.2V25H97.8z"/>
	<path class="st0" d="M118.8,12.3h7.5V49h-7.5V12.3z"/>
	<path class="st0" d="M147.9,12.3h7.5v36c-3.9,0.7-6.7,1-9.8,1c-9.2,0-14-4.2-14-12.1c0-7.7,5.1-12.7,13-12.7c1.2,0,2.2,0.1,3.3,0.4
		V12.3z M147.9,30.9c-0.9-0.3-1.6-0.4-2.5-0.4c-3.8,0-6,2.4-6,6.5c0,4,2.1,6.2,6,6.2c0.8,0,1.5,0,2.6-0.2V30.9z"/>
	<path class="st0" d="M162,13.4h7.5v7.7H162V13.4z M162,25h7.5v24H162V25z"/>
	<path class="st0" d="M173.4,25.5h4.2v-6.7h7.2v6.7h5.3v5.6h-5.3v8.1c0,3.3,0.7,4.2,3.2,4.2c0.5,0,0.9-0.1,1.6-0.3v5.7
		c-1.5,0.2-2.7,0.4-4.1,0.4c-3.3,0-5.7-0.8-7-2.4c-1.1-1.4-1.3-2.4-1.3-6.5v-9.1h-3.9V25.5z"/>
</g>
<g>
	<g>
		<polygon class="st0" points="25.3,12.4 25.3,0.4 20.4,5.3 20.4,17.3 41.5,17.3 41.5,44.9 32.6,53.8 5,53.8 5,20.8 0,25.7 0,58.8 
			34.6,58.8 46.4,47 46.4,12.4 		"/>
		<polygon class="st0" points="19.7,39.1 19.7,39.1 26.7,39.1 26.7,32.1 19.7,32.1 		"/>
		<path class="st0" d="M36.4,42.7V22.4h0H15.1V10.6l-5,5v33.1v0h20.3L36.4,42.7z M15.1,43.7L15.1,43.7V27.3h16.3h0v13.3l-3.1,3.1
			H15.1z"/>
	</g>
	<polygon class="st1" points="15.1,43.6 15.1,43.6 10.2,48.6 10.2,48.6 	"/>
	<polygon class="st1" points="31.4,27.3 36.4,22.4 36.4,22.4 31.4,27.3 	"/>
	<polygon class="st1" points="46.4,12.4 46.4,12.4 41.5,17.3 41.5,17.3 	"/>
	<polygon class="st1" points="5,53.8 5,53.8 0,58.8 0,58.8 	"/>
	<polygon class="st1" points="41.5,17.3 41.5,44.9 32.6,53.8 5,53.8 5,53.8 0,58.8 34.6,58.8 46.4,47 46.4,12.4 46.4,12.4 
		41.5,17.3 	"/>
	<polygon class="st1" points="19.7,39.1 19.7,39.1 26.7,32.1 26.7,32.1 	"/>
</g>
</svg>
