<?xml version="1.0" standalone="no"?>
<!DOCTYPE svg PUBLIC "-//W3C//DTD SVG 20010904//EN"
 "http://www.w3.org/TR/2001/REC-SVG-20010904/DTD/svg10.dtd">
<svg version="1.0" xmlns="http://www.w3.org/2000/svg"
 width="500.000000pt" height="300.000000pt" viewBox="0 0 500.000000 300.000000"
 preserveAspectRatio="xMidYMid meet">
<metadata>
Created by potrace 1.14, written by Peter Selinger 2001-2017
</metadata>
<g transform="translate(0.000000,300.000000) scale(0.100000,-0.100000)"
fill="#000000" stroke="none">
<path d="M3605 2503 c-71 -42 -251 -145 -400 -231 -148 -85 -344 -198 -435
-250 -286 -164 -622 -357 -867 -498 -131 -75 -326 -187 -433 -249 -107 -62
-301 -173 -430 -247 -129 -75 -323 -186 -430 -248 -107 -62 -282 -162 -387
-222 -106 -61 -193 -114 -193 -119 0 -5 222 -9 510 -9 l510 0 2 83 c2 45 3
114 3 152 0 39 4 76 8 83 5 7 30 12 62 12 68 0 78 -15 74 -114 -1 -39 -2 -104
-1 -143 l2 -73 225 0 c212 0 225 1 235 19 5 11 10 76 10 145 0 68 3 131 6 140
5 12 20 16 60 16 44 0 55 -4 64 -21 7 -11 9 -32 5 -47 -3 -14 -3 -76 1 -139
l7 -113 229 0 c218 0 229 1 236 20 4 10 9 79 10 152 2 73 8 137 13 142 13 14
91 16 106 4 10 -8 13 -53 13 -164 l0 -154 230 0 230 0 10 26 c6 14 10 81 10
149 0 68 3 130 6 139 8 20 103 23 122 4 8 -8 12 -59 12 -165 l0 -153 240 0
240 0 0 146 c0 81 5 154 10 165 9 15 22 19 64 19 31 0 58 -5 63 -13 6 -6 11
-76 11 -154 0 -79 3 -147 7 -153 4 -6 91 -10 236 -10 l229 0 0 153 c0 106 4
157 12 165 16 16 113 15 126 -1 7 -8 13 -73 14 -163 l3 -149 339 -3 c187 -1
343 1 347 5 6 7 -129 245 -375 663 -24 41 -54 93 -66 115 -25 45 -489 845
-715 1233 -42 72 -80 132 -83 131 -4 0 -65 -34 -137 -76z m-416 -453 c10 -5
24 -23 31 -40 11 -26 10 -34 -6 -57 -39 -61 -71 -67 -115 -24 -36 36 -37 73
-4 106 25 26 63 32 94 15z m-258 -169 c34 -34 38 -78 12 -110 -25 -30 -278
-181 -618 -369 -55 -30 -145 -83 -200 -117 -129 -80 -252 -145 -276 -145 -33
0 -82 53 -82 88 0 39 21 64 87 101 116 64 275 156 333 192 34 21 65 39 68 39
7 0 339 189 480 273 89 53 131 73 158 76 5 1 22 -12 38 -28z m758 -299 c63
-108 159 -273 213 -366 54 -93 98 -173 98 -177 0 -5 -389 -9 -865 -9 -507 0
-865 4 -865 9 0 5 60 43 133 84 72 41 220 125 327 187 107 62 332 191 500 287
168 97 309 179 314 183 5 5 14 6 20 4 6 -2 62 -93 125 -202z"/>
</g>
</svg>
