<?xml version="1.0" standalone="no"?>
<!DOCTYPE svg PUBLIC "-//W3C//DTD SVG 20010904//EN"
 "http://www.w3.org/TR/2001/REC-SVG-20010904/DTD/svg10.dtd">
<svg version="1.0" xmlns="http://www.w3.org/2000/svg"
 width="500.000000pt" height="500.000000pt" viewBox="0 0 500.000000 500.000000"
 preserveAspectRatio="xMidYMid meet">
<metadata>
Created by potrace 1.14, written by Peter Selinger 2001-2017
</metadata>
<g transform="translate(0.000000,500.000000) scale(0.100000,-0.100000)"
fill="#000000" stroke="none">
<path d="M3715 3567 c-11 -8 -40 -25 -65 -39 -25 -14 -136 -78 -247 -142 -112
-64 -292 -167 -400 -229 -109 -63 -274 -158 -368 -212 -389 -224 -502 -289
-730 -420 -132 -76 -329 -189 -437 -251 -109 -63 -287 -165 -395 -228 -109
-62 -305 -175 -435 -250 -131 -75 -252 -144 -270 -155 -248 -141 -338 -195
-338 -202 0 -5 224 -9 510 -9 l510 0 1 53 c3 135 9 259 14 268 4 5 31 9 60 9
67 0 78 -15 75 -108 -1 -37 -2 -102 -1 -144 l1 -78 223 0 c160 0 226 3 235 12
8 8 12 57 12 154 0 159 -2 154 76 154 39 0 46 -3 54 -26 6 -14 7 -30 4 -36 -4
-5 -3 -66 1 -134 l7 -124 228 0 c172 0 231 3 237 13 4 6 9 75 11 152 2 77 7
144 11 148 13 13 93 17 108 6 10 -9 13 -49 13 -165 l0 -154 230 0 230 0 10 26
c6 14 10 83 10 153 0 85 4 131 12 139 16 16 100 16 116 0 8 -8 12 -59 12 -165
l0 -153 240 0 c185 0 240 3 241 13 0 6 0 72 -1 144 -1 164 3 173 74 173 71 0
79 -11 75 -102 -2 -40 -2 -108 -1 -150 l2 -78 235 0 235 0 0 153 c0 106 4 157
12 165 16 16 113 15 126 -1 7 -8 13 -73 14 -163 l3 -149 339 -3 c187 -1 343 1
347 5 4 5 -31 73 -78 153 -83 141 -297 510 -365 630 -42 73 -546 941 -604
1040 -18 30 -66 113 -107 185 -41 71 -79 131 -84 132 -4 2 -17 -3 -28 -10z
m-518 -522 c55 -39 16 -145 -54 -145 -24 0 -73 56 -73 85 0 58 77 95 127 60z
m-257 -173 c24 -29 26 -69 5 -99 -8 -12 -52 -42 -97 -69 -46 -26 -101 -59
-123 -74 -22 -15 -69 -42 -105 -60 -36 -19 -78 -43 -95 -55 -16 -12 -59 -37
-95 -55 -36 -18 -76 -40 -90 -50 -14 -9 -50 -30 -80 -46 -30 -16 -99 -56 -152
-89 -157 -97 -208 -124 -244 -131 -30 -5 -38 -2 -70 30 -30 30 -35 41 -29 64
9 37 29 57 89 91 116 64 275 156 333 192 34 21 65 39 68 39 7 0 339 189 480
273 139 83 167 89 205 39z m760 -309 c190 -327 209 -360 257 -440 24 -40 43
-77 43 -83 0 -7 -285 -10 -865 -10 -529 0 -865 4 -865 9 0 5 28 25 63 43 34
19 121 68 192 110 125 72 384 221 810 466 110 63 204 118 210 123 5 5 12 9 16
9 4 0 67 -102 139 -227z"/>
</g>
</svg>
