<?xml version="1.0" standalone="no"?>
<!DOCTYPE svg PUBLIC "-//W3C//DTD SVG 20010904//EN"
 "http://www.w3.org/TR/2001/REC-SVG-20010904/DTD/svg10.dtd">
<svg version="1.0" xmlns="http://www.w3.org/2000/svg"
 width="500.000000pt" height="500.000000pt" viewBox="0 0 500.000000 500.000000"
 preserveAspectRatio="xMidYMid meet">
<metadata>
Created by potrace 1.14, written by Peter Selinger 2001-2017
</metadata>
<g transform="translate(0.000000,500.000000) scale(0.100000,-0.100000)"
fill="#000000" stroke="none">
<path d="M67 4986 c-3 -7 -19 -20 -36 -27 l-31 -14 0 -1205 1 -1205 24 -18
c23 -16 65 -18 617 -18 550 0 594 2 605 18 10 13 13 268 13 1223 l0 1206 -31
27 -31 27 -563 0 c-470 0 -564 -2 -568 -14z"/>
<path d="M1896 3104 c-14 -13 -16 -54 -16 -298 0 -228 3 -286 14 -295 19 -16
3043 -16 3062 0 11 9 14 68 14 300 0 275 -1 289 -19 299 -13 7 -508 10 -1530
10 -1359 0 -1511 -2 -1525 -16z"/>
<path d="M656 1864 c-14 -14 -16 -110 -16 -912 l0 -898 31 -27 31 -27 1224 0
c1033 0 1228 2 1256 14 18 8 92 19 163 25 72 6 159 20 193 31 35 11 73 20 84
20 10 0 40 8 66 19 26 10 81 31 122 47 91 34 214 98 312 160 353 226 631 583
758 974 57 177 89 360 90 512 0 47 -4 59 -19 68 -14 7 -701 10 -2150 10 -1923
0 -2131 -2 -2145 -16z"/>
</g>
</svg>
