<?xml version="1.0" standalone="no"?>
<!DOCTYPE svg PUBLIC "-//W3C//DTD SVG 20010904//EN"
 "http://www.w3.org/TR/2001/REC-SVG-20010904/DTD/svg10.dtd">
<svg version="1.0" xmlns="http://www.w3.org/2000/svg"
 width="350.000000pt" height="350.000000pt" viewBox="0 0 350.000000 350.000000"
 preserveAspectRatio="xMidYMid meet">
<metadata>
Created by potrace 1.14, written by Peter Selinger 2001-2017
</metadata>
<g transform="translate(0.000000,350.000000) scale(0.100000,-0.100000)"
fill="#000000" stroke="none">
<path d="M27 3476 c-16 -13 -17 -63 -17 -856 0 -617 3 -846 11 -856 10 -12 85
-14 433 -12 l421 3 3 854 c1 622 -1 857 -9 867 -17 20 -815 20 -842 0z"/>
<path d="M2386 2182 c-755 -1 -1053 -5 -1063 -13 -18 -15 -19 -389 -1 -407 9
-9 263 -12 1080 -12 l1068 0 5 23 c3 12 4 107 3 211 -3 179 -4 189 -23 195
-11 3 -492 5 -1069 3z"/>
<path d="M462 1308 c-9 -9 -12 -166 -12 -645 0 -615 1 -633 19 -643 32 -17
1707 -13 1851 4 111 14 226 37 273 55 12 5 47 19 77 31 158 62 295 154 431
290 181 180 294 385 353 640 22 96 31 247 16 265 -11 13 -198 15 -1504 15
-1147 0 -1495 -3 -1504 -12z"/>
</g>
</svg>
