<?xml version="1.0" standalone="no"?>
<!DOCTYPE svg PUBLIC "-//W3C//DTD SVG 20010904//EN"
 "http://www.w3.org/TR/2001/REC-SVG-20010904/DTD/svg10.dtd">
<svg version="1.0" xmlns="http://www.w3.org/2000/svg"
 width="500.000000pt" height="583.000000pt" viewBox="0 0 500.000000 583.000000"
 preserveAspectRatio="xMidYMid meet">
<metadata>
Created by potrace 1.14, written by Peter Selinger 2001-2017
</metadata>
<g transform="translate(0.000000,583.000000) scale(0.100000,-0.100000)"
fill="#000000" stroke="none">
<path d="M1676 5814 c-3 -9 -6 -135 -6 -280 l0 -264 819 0 c566 0 822 3 826
11 9 13 9 501 0 528 -6 21 -7 21 -820 21 -732 0 -813 -2 -819 -16z"/>
<path d="M2225 4975 c-155 -17 -372 -61 -443 -91 -18 -8 -39 -14 -46 -14 -29
0 -224 -79 -356 -145 -400 -197 -764 -532 -1000 -920 -58 -95 -134 -241 -165
-317 -14 -35 -30 -72 -35 -83 -13 -30 -75 -223 -89 -280 -32 -125 -52 -240
-62 -355 -6 -69 -15 -126 -20 -128 -12 -5 -12 -269 0 -274 5 -1 14 -59 20
-128 16 -182 64 -396 129 -580 174 -488 525 -935 962 -1224 156 -104 253 -155
465 -246 111 -47 339 -109 515 -139 227 -39 615 -37 820 4 178 35 376 90 485
135 85 35 116 49 210 96 485 245 892 659 1119 1140 54 112 62 131 87 199 12
33 28 74 35 92 8 17 14 36 14 43 0 7 7 33 15 59 80 258 112 592 85 915 -37
445 -221 920 -492 1267 -15 20 -28 43 -28 51 0 7 83 96 185 198 106 106 185
193 185 203 0 25 -352 377 -377 377 -10 0 -97 -79 -203 -185 -102 -102 -190
-185 -196 -185 -6 0 -37 19 -70 42 -80 57 -196 133 -214 141 -8 4 -31 17 -50
28 -150 91 -398 191 -600 242 -278 71 -594 92 -885 62z m420 -545 c289 -30
498 -89 720 -202 586 -299 973 -855 1050 -1510 19 -160 19 -267 0 -426 -40
-330 -138 -595 -320 -867 -224 -333 -536 -579 -922 -729 -51 -20 -100 -36
-109 -36 -8 0 -23 -4 -33 -10 -53 -28 -391 -79 -526 -80 -149 0 -424 39 -530
76 -23 8 -47 14 -55 14 -8 0 -27 6 -41 14 -14 7 -38 16 -53 20 -24 6 -133 52
-176 75 -32 17 -142 77 -159 86 -73 42 -233 167 -320 250 -394 377 -601 859
-601 1400 0 308 59 566 191 840 278 576 832 982 1459 1069 191 26 292 30 425
16z"/>
<path d="M2227 3873 c-4 -3 -7 -372 -7 -819 0 -765 1 -814 18 -821 9 -4 132
-7 273 -5 256 3 257 3 263 25 8 29 8 1591 0 1611 -5 14 -39 16 -273 16 -147 0
-271 -3 -274 -7z"/>
</g>
</svg>
