<?xml version="1.0" standalone="no"?>
<!DOCTYPE svg PUBLIC "-//W3C//DTD SVG 20010904//EN"
 "http://www.w3.org/TR/2001/REC-SVG-20010904/DTD/svg10.dtd">
<svg version="1.0" xmlns="http://www.w3.org/2000/svg"
 width="500.000000pt" height="500.000000pt" viewBox="0 0 500.000000 500.000000"
 preserveAspectRatio="xMidYMid meet">
<metadata>
Created by potrace 1.14, written by Peter Selinger 2001-2017
</metadata>
<g transform="translate(0.000000,500.000000) scale(0.100000,-0.100000)"
fill="#000000" stroke="none">
<path d="M2340 3663 c-80 -69 -254 -222 -387 -340 -134 -117 -250 -213 -258
-213 -12 0 -15 26 -17 158 l-3 157 -275 0 -275 0 -3 -417 -2 -417 -24 -19
c-21 -16 -491 -428 -766 -672 -53 -47 -147 -130 -208 -184 l-112 -99 0 -193
c0 -181 1 -194 19 -204 14 -7 800 -10 2468 -10 1999 0 2452 2 2467 13 16 12
18 32 17 207 l-1 193 -52 47 c-54 48 -428 376 -1143 1003 -220 193 -562 493
-759 667 -198 173 -394 345 -437 383 -42 37 -83 67 -91 67 -7 0 -79 -57 -158
-127z m418 -840 c136 -120 339 -298 452 -397 113 -99 259 -228 325 -286 66
-58 179 -157 250 -220 128 -112 145 -128 145 -142 0 -5 -643 -8 -1430 -8
-1181 0 -1430 2 -1430 13 0 8 136 133 303 279 843 740 997 875 1052 924 33 30
66 54 73 54 7 0 124 -98 260 -217z"/>
</g>
</svg>
