<?xml version="1.0" standalone="no"?>
<!DOCTYPE svg PUBLIC "-//W3C//DTD SVG 20010904//EN"
 "http://www.w3.org/TR/2001/REC-SVG-20010904/DTD/svg10.dtd">
<svg version="1.0" xmlns="http://www.w3.org/2000/svg"
 width="500.000000pt" height="350.000000pt" viewBox="0 0 500.000000 350.000000"
 preserveAspectRatio="xMidYMid meet">
<metadata>
Created by potrace 1.14, written by Peter Selinger 2001-2017
</metadata>
<g transform="translate(0.000000,350.000000) scale(0.100000,-0.100000)"
fill="#000000" stroke="none">
<path d="M2215 2804 c-149 -130 -301 -264 -340 -299 -129 -115 -178 -154 -187
-149 -4 3 -8 74 -8 159 0 130 -2 154 -16 159 -27 10 -532 7 -539 -4 -3 -5 -6
-191 -5 -414 l0 -404 -22 -25 c-19 -20 -325 -290 -637 -562 -32 -27 -129 -113
-216 -190 -87 -77 -175 -154 -194 -171 l-36 -32 -5 -188 c-5 -175 -4 -190 14
-206 17 -17 153 -18 2470 -18 2019 0 2455 2 2470 13 17 12 18 31 17 193 0 98
-1 185 -1 192 0 17 19 -1 -525 477 -258 227 -549 482 -645 567 -147 129 -958
841 -1221 1071 -42 37 -83 67 -91 67 -7 0 -135 -106 -283 -236z m369 -578 c39
-35 170 -150 291 -256 121 -107 343 -302 494 -434 151 -133 335 -295 410 -360
134 -117 151 -134 151 -148 0 -5 -643 -8 -1430 -8 -1186 0 -1430 2 -1430 13 0
8 136 133 303 279 166 146 417 366 557 489 139 123 322 284 405 356 82 73 156
133 164 133 7 0 46 -29 85 -64z"/>
</g>
</svg>
