<?xml version="1.0" standalone="no"?>
<!DOCTYPE svg PUBLIC "-//W3C//DTD SVG 20010904//EN"
 "http://www.w3.org/TR/2001/REC-SVG-20010904/DTD/svg10.dtd">
<svg version="1.0" xmlns="http://www.w3.org/2000/svg"
 width="500.000000pt" height="500.000000pt" viewBox="0 0 500.000000 500.000000"
 preserveAspectRatio="xMidYMid meet">
<metadata>
Created by potrace 1.14, written by Peter Selinger 2001-2017
</metadata>
<g transform="translate(0.000000,500.000000) scale(0.100000,-0.100000)"
fill="#000000" stroke="none">
<path d="M2955 3910 c-3 -5 -25 -14 -48 -20 -43 -11 -97 -31 -152 -55 -16 -8
-52 -24 -80 -36 -60 -26 -181 -86 -595 -295 -173 -88 -376 -186 -450 -218 -74
-31 -144 -61 -155 -66 -54 -25 -167 -60 -304 -95 -51 -13 -95 -26 -98 -28 -2
-3 -5 -70 -6 -149 l-2 -143 -50 -7 c-80 -10 -637 -8 -780 3 -202 16 -189 16
-193 -6 -3 -10 3 -53 13 -95 26 -117 42 -188 61 -280 9 -47 22 -90 28 -96 19
-19 248 -35 581 -41 176 -3 328 -10 338 -15 15 -8 17 -26 17 -154 0 -80 4
-153 10 -163 6 -13 31 -22 77 -31 166 -29 367 -112 783 -323 151 -77 383 -194
515 -261 307 -156 373 -185 494 -217 87 -23 120 -24 182 -5 169 51 273 214
287 446 l7 105 230 7 c127 4 448 11 715 15 485 8 485 8 523 31 20 13 51 43 67
67 25 36 30 54 30 101 0 51 -4 62 -36 101 -20 25 -56 54 -80 65 l-43 21 -698
-10 c-519 -8 -701 -8 -709 1 -8 7 -14 137 -18 418 l-6 408 22 4 c13 3 320 8
683 11 401 4 682 10 715 17 72 13 129 69 148 143 23 90 -23 192 -105 230 -34
16 -82 17 -743 10 -589 -6 -708 -5 -717 6 -6 8 -13 53 -17 100 -16 203 -119
393 -257 474 -50 29 -70 35 -119 35 -32 0 -62 -4 -65 -10z"/>
</g>
</svg>
