<?xml version="1.0" standalone="no"?>
<!DOCTYPE svg PUBLIC "-//W3C//DTD SVG 20010904//EN"
 "http://www.w3.org/TR/2001/REC-SVG-20010904/DTD/svg10.dtd">
<svg version="1.0" xmlns="http://www.w3.org/2000/svg"
 width="500.000000pt" height="400.000000pt" viewBox="0 0 500.000000 400.000000"
 preserveAspectRatio="xMidYMid meet">
<metadata>
Created by potrace 1.14, written by Peter Selinger 2001-2017
</metadata>
<g transform="translate(0.000000,400.000000) scale(0.100000,-0.100000)"
fill="#000000" stroke="none">
<path d="M2960 3410 c-8 -6 -33 -15 -55 -20 -47 -12 -110 -37 -217 -84 -57
-25 -302 -147 -609 -303 -162 -83 -360 -178 -440 -212 -79 -34 -153 -66 -164
-71 -56 -26 -208 -73 -314 -99 -45 -11 -85 -22 -88 -25 -3 -3 -6 -69 -7 -148
l-1 -143 -50 -7 c-133 -17 -842 -4 -937 18 -48 11 -47 -12 7 -251 8 -33 21
-96 31 -140 9 -44 20 -87 24 -95 13 -24 196 -38 575 -46 198 -4 345 -11 353
-17 8 -7 12 -50 12 -154 0 -79 4 -152 10 -162 6 -13 31 -22 77 -31 163 -29
380 -118 771 -317 398 -203 806 -407 848 -425 36 -15 100 -37 195 -67 101 -32
231 10 315 100 84 90 124 197 132 352 2 59 5 107 6 107 1 0 163 3 361 6 1068
17 1066 17 1108 43 20 12 51 42 67 66 25 36 30 54 30 101 0 51 -4 62 -36 101
-20 24 -54 53 -77 65 -42 21 -44 21 -612 14 -313 -3 -629 -9 -700 -12 -105 -5
-132 -4 -141 7 -17 22 -28 813 -11 826 10 9 1162 29 1305 24 128 -5 217 47
248 145 16 53 16 58 -1 112 -18 60 -65 115 -114 134 -17 7 -261 8 -731 3 -588
-6 -708 -5 -717 6 -6 8 -13 53 -17 101 -16 207 -124 402 -264 476 -62 33 -140
43 -172 22z"/>
</g>
</svg>
