<?xml version="1.0" standalone="no"?>
<!DOCTYPE svg PUBLIC "-//W3C//DTD SVG 20010904//EN"
 "http://www.w3.org/TR/2001/REC-SVG-20010904/DTD/svg10.dtd">
<svg version="1.0" xmlns="http://www.w3.org/2000/svg"
 width="500.000000pt" height="500.000000pt" viewBox="0 0 500.000000 500.000000"
 preserveAspectRatio="xMidYMid meet">
<metadata>
Created by potrace 1.14, written by Peter Selinger 2001-2017
</metadata>
<g transform="translate(0.000000,500.000000) scale(0.100000,-0.100000)"
fill="#000000" stroke="none">
<path d="M3050 4991 c0 -5 -26 -12 -57 -16 -355 -38 -744 -186 -1068 -406
-262 -178 -524 -445 -689 -704 -21 -33 -46 -71 -55 -85 -40 -58 -191 -380
-191 -406 0 -31 -41 -34 -514 -34 l-476 0 0 -275 0 -275 399 0 c247 0 410 -4
426 -10 22 -8 26 -15 21 -33 -12 -41 -18 -332 -8 -402 16 -115 55 -105 -423
-105 l-415 0 0 -275 0 -275 468 0 c257 0 477 -3 489 -6 14 -4 26 -19 34 -41 6
-19 17 -47 25 -61 8 -15 14 -31 14 -36 0 -10 99 -206 129 -256 11 -19 24 -42
28 -50 3 -8 29 -49 56 -90 204 -306 460 -555 771 -750 92 -58 328 -177 401
-203 236 -82 343 -110 550 -144 155 -25 553 -25 710 0 314 51 597 148 865 298
153 85 420 284 420 313 0 16 -455 470 -476 474 -8 2 -54 -25 -102 -61 -48 -35
-100 -73 -117 -84 -38 -26 -211 -116 -250 -131 -16 -6 -55 -20 -85 -32 -75
-30 -167 -54 -320 -86 -122 -25 -447 -25 -585 0 -134 24 -295 71 -395 114 -56
24 -169 79 -195 95 -288 174 -492 373 -645 627 -38 64 -47 86 -39 97 9 11 148
13 784 13 696 0 773 2 779 16 11 28 7 494 -4 515 -10 19 -31 19 -875 19 -754
0 -865 2 -879 15 -20 20 -30 105 -30 260 0 155 10 240 31 260 13 13 121 15
881 15 690 0 867 2 874 12 9 15 11 498 2 522 -6 14 -83 16 -779 16 -636 0
-775 2 -784 14 -8 10 1 33 44 101 247 393 628 676 1065 792 286 75 638 75 918
-2 112 -30 211 -69 327 -126 158 -79 174 -89 297 -181 42 -32 80 -58 85 -58
16 0 473 465 473 481 0 22 -120 119 -271 221 -293 196 -688 349 -1006 388 -48
6 -89 15 -91 21 -5 12 -542 12 -542 0z"/>
</g>
</svg>
