<?xml version="1.0" standalone="no"?>
<!DOCTYPE svg PUBLIC "-//W3C//DTD SVG 20010904//EN"
 "http://www.w3.org/TR/2001/REC-SVG-20010904/DTD/svg10.dtd">
<svg version="1.0" xmlns="http://www.w3.org/2000/svg"
 width="500.000000pt" height="500.000000pt" viewBox="0 0 500.000000 500.000000"
 preserveAspectRatio="xMidYMid meet">
<metadata>
Created by potrace 1.14, written by Peter Selinger 2001-2017
</metadata>
<g transform="translate(0.000000,500.000000) scale(0.100000,-0.100000)"
fill="#000000" stroke="none">
<path d="M46 4944 c-14 -14 -16 -131 -16 -1135 0 -753 3 -1127 10 -1140 10
-19 34 -19 1148 -19 872 0 1141 3 1150 12 17 17 17 2269 0 2286 -9 9 -277 12
-1144 12 -1016 0 -1134 -2 -1148 -16z"/>
<path d="M2662 4948 c-19 -19 -17 -2271 2 -2287 10 -8 319 -10 1152 -9 l1139
3 3 1144 c2 909 0 1146 -10 1153 -7 4 -522 8 -1143 8 -867 0 -1134 -3 -1143
-12z"/>
<path d="M40 2294 c-14 -36 -13 -2207 1 -2256 l10 -38 1143 0 1143 0 7 37 c11
68 7 2243 -4 2264 -10 19 -34 19 -1151 19 l-1139 0 -10 -26z"/>
<path d="M2662 2308 c-9 -9 -12 -274 -12 -1129 0 -614 3 -1131 6 -1148 l7 -31
1142 0 1143 0 6 23 c8 29 8 2261 0 2281 -6 14 -116 16 -1143 16 -871 0 -1140
-3 -1149 -12z"/>
</g>
</svg>
