<?xml version="1.0" standalone="no"?>
<!DOCTYPE svg PUBLIC "-//W3C//DTD SVG 20010904//EN"
 "http://www.w3.org/TR/2001/REC-SVG-20010904/DTD/svg10.dtd">
<svg version="1.0" xmlns="http://www.w3.org/2000/svg"
 width="500.000000pt" height="450.000000pt" viewBox="0 0 500.000000 450.000000"
 preserveAspectRatio="xMidYMid meet">
<metadata>
Created by potrace 1.14, written by Peter Selinger 2001-2017
</metadata>
<g transform="translate(0.000000,450.000000) scale(0.100000,-0.100000)"
fill="#000000" stroke="none">
<path d="M2306 4061 c-3 -4 -37 -12 -77 -15 -94 -10 -197 -32 -215 -46 -12
-11 -14 -158 -16 -1024 l-3 -1011 -135 0 -135 0 -3 875 c-1 481 -6 878 -10
882 -10 10 -111 -32 -226 -92 -343 -180 -641 -456 -845 -783 -62 -99 -171
-316 -171 -339 0 -8 -4 -18 -9 -23 -7 -9 -53 -153 -81 -255 -14 -53 -37 -176
-49 -265 -12 -89 -17 -517 -6 -534 8 -14 4313 -15 4334 -2 23 15 9 501 -19
646 -55 297 -145 532 -292 769 -173 280 -425 531 -708 706 -109 68 -278 152
-290 145 -6 -4 -10 -320 -10 -859 0 -649 -3 -855 -12 -864 -8 -8 -53 -12 -135
-12 -111 0 -123 2 -133 19 -7 13 -10 347 -10 1011 l0 990 -27 11 c-43 17 -150
39 -238 50 -44 6 -88 14 -97 20 -22 11 -375 12 -382 0z"/>
<path d="M0 830 c0 -355 1 -380 18 -380 9 0 1128 0 2485 0 1813 0 2471 3 2480
11 9 9 12 100 10 363 -1 193 -5 359 -9 369 -6 16 -153 17 -2495 17 l-2489 0 0
-380z"/>
</g>
</svg>
