<?xml version="1.0" standalone="no"?>
<!DOCTYPE svg PUBLIC "-//W3C//DTD SVG 20010904//EN"
 "http://www.w3.org/TR/2001/REC-SVG-20010904/DTD/svg10.dtd">
<svg version="1.0" xmlns="http://www.w3.org/2000/svg"
 width="500.000000pt" height="500.000000pt" viewBox="0 0 500.000000 500.000000"
 preserveAspectRatio="xMidYMid meet">
<metadata>
Created by potrace 1.14, written by Peter Selinger 2001-2017
</metadata>
<g transform="translate(0.000000,500.000000) scale(0.100000,-0.100000)"
fill="#000000" stroke="none">
<path d="M2306 4311 c-3 -4 -37 -12 -77 -15 -94 -10 -197 -32 -215 -46 -12
-11 -14 -154 -14 -1021 l0 -1009 -22 -5 c-13 -3 -75 -4 -138 -3 l-115 3 -3
874 c-1 637 -5 877 -13 882 -13 8 -46 -5 -169 -64 -221 -105 -396 -231 -586
-421 -139 -140 -218 -237 -312 -388 -61 -97 -172 -316 -172 -340 0 -8 -4 -18
-9 -23 -5 -6 -18 -41 -31 -80 -86 -272 -108 -423 -111 -739 0 -126 3 -232 8
-237 5 -5 890 -8 2174 -7 l2164 3 -1 265 c-1 271 -3 285 -53 530 -25 121 -106
335 -183 485 -170 330 -460 642 -785 843 -92 58 -273 152 -291 152 -9 0 -12
-194 -12 -858 0 -654 -3 -861 -12 -870 -17 -17 -254 -17 -265 1 -4 6 -10 462
-13 1011 l-5 999 -40 14 c-57 20 -162 40 -245 49 -39 3 -73 11 -76 15 -3 5
-88 9 -189 9 -101 0 -186 -4 -189 -9z"/>
<path d="M0 1080 l0 -380 2486 0 c2141 0 2487 2 2500 14 20 21 20 702 0 729
-13 16 -143 17 -2500 17 l-2486 0 0 -380z"/>
</g>
</svg>
