<?xml version="1.0" standalone="no"?>
<!DOCTYPE svg PUBLIC "-//W3C//DTD SVG 20010904//EN"
 "http://www.w3.org/TR/2001/REC-SVG-20010904/DTD/svg10.dtd">
<svg version="1.0" xmlns="http://www.w3.org/2000/svg"
 width="500.000000pt" height="500.000000pt" viewBox="0 0 500.000000 500.000000"
 preserveAspectRatio="xMidYMid meet">
<metadata>
Created by potrace 1.14, written by Peter Selinger 2001-2017
</metadata>
<g transform="translate(0.000000,500.000000) scale(0.100000,-0.100000)"
fill="#000000" stroke="none">
<path d="M3180 3370 c-19 -4 -59 -13 -89 -19 -97 -20 -199 -77 -277 -155 -123
-123 -168 -244 -202 -546 l-7 -65 -183 -3 c-182 -2 -182 -2 -191 21 -57 148
-145 237 -281 282 -51 17 -108 19 -825 19 -854 1 -826 3 -929 -65 -150 -100
-229 -299 -177 -446 50 -143 111 -217 228 -274 l68 -34 805 0 805 0 55 23
c107 46 190 129 234 238 l24 59 184 0 183 0 7 -65 c33 -303 79 -431 198 -550
95 -95 204 -145 378 -177 137 -24 233 -27 310 -10 37 9 84 19 104 22 54 8 231
67 324 108 241 104 521 275 824 501 173 129 204 158 230 212 22 44 22 45 3 90
-19 49 -42 71 -213 201 -258 195 -499 347 -735 462 -159 77 -190 91 -207 91
-8 0 -18 4 -24 9 -11 10 -123 43 -221 65 -76 17 -336 21 -403 6z"/>
</g>
</svg>
