<?xml version="1.0" standalone="no"?>
<!DOCTYPE svg PUBLIC "-//W3C//DTD SVG 20010904//EN"
 "http://www.w3.org/TR/2001/REC-SVG-20010904/DTD/svg10.dtd">
<svg version="1.0" xmlns="http://www.w3.org/2000/svg"
 width="500.000000pt" height="350.000000pt" viewBox="0 0 500.000000 350.000000"
 preserveAspectRatio="xMidYMid meet">
<metadata>
Created by potrace 1.14, written by Peter Selinger 2001-2017
</metadata>
<g transform="translate(0.000000,350.000000) scale(0.100000,-0.100000)"
fill="#000000" stroke="none">
<path d="M3180 2620 c-19 -4 -59 -13 -88 -19 -101 -21 -198 -74 -276 -153
-125 -125 -170 -245 -204 -548 l-7 -65 -183 -3 -183 -2 -15 37 c-46 112 -89
168 -168 218 -107 67 -69 65 -930 65 -862 1 -823 4 -932 -65 -54 -35 -117
-102 -139 -150 -58 -125 -67 -206 -34 -300 47 -135 111 -210 226 -267 l68 -33
805 0 805 0 55 23 c107 45 190 129 232 234 15 39 30 61 43 64 11 2 94 3 185 2
l165 -3 7 -60 c36 -316 79 -436 198 -555 100 -100 201 -145 401 -180 125 -22
203 -25 264 -10 22 5 67 14 100 20 58 9 229 60 270 80 11 5 49 21 85 36 211
85 534 282 837 510 164 124 205 164 222 217 11 31 9 41 -13 84 -19 38 -48 67
-128 129 -217 168 -345 256 -539 374 -111 68 -344 188 -424 220 -82 32 -108
41 -165 59 -136 41 -205 51 -357 50 -81 -1 -164 -5 -183 -9z"/>
</g>
</svg>
