<?xml version="1.0" standalone="no"?>
<!DOCTYPE svg PUBLIC "-//W3C//DTD SVG 20010904//EN"
 "http://www.w3.org/TR/2001/REC-SVG-20010904/DTD/svg10.dtd">
<svg version="1.0" xmlns="http://www.w3.org/2000/svg"
 width="500.000000pt" height="500.000000pt" viewBox="0 0 500.000000 500.000000"
 preserveAspectRatio="xMidYMid meet">
<metadata>
Created by potrace 1.14, written by Peter Selinger 2001-2017
</metadata>
<g transform="translate(0.000000,500.000000) scale(0.100000,-0.100000)"
fill="#000000" stroke="none">
<path d="M2430 4610 c-25 -16 -67 -41 -95 -55 -27 -15 -69 -40 -93 -56 -24
-16 -45 -29 -47 -29 -3 0 -396 -227 -875 -505 -478 -278 -872 -505 -874 -505
-3 0 -24 -13 -48 -28 -24 -16 -63 -40 -88 -53 -25 -13 -52 -29 -60 -35 -8 -6
-51 -31 -95 -54 -165 -87 -159 -90 209 -90 221 0 305 -3 314 -12 9 -9 12 -337
12 -1415 l0 -1403 26 -10 c35 -14 3533 -14 3568 0 l26 10 0 1403 c0 1078 3
1406 12 1415 9 9 93 12 315 12 294 0 303 1 303 20 0 12 -12 25 -32 35 -18 8
-260 147 -538 309 l-505 293 -5 249 -5 249 -305 3 c-168 1 -315 0 -327 -3 -19
-4 -23 -12 -23 -46 0 -50 -18 -58 -67 -29 -21 13 -54 32 -73 43 -19 11 -48 28
-65 38 -16 10 -41 24 -55 32 -14 7 -43 24 -65 37 -22 12 -60 34 -85 48 -25 14
-57 33 -72 43 -14 11 -29 19 -32 19 -3 0 -43 23 -90 50 -47 28 -93 50 -103 49
-10 0 -38 -13 -63 -29z m647 -1952 c86 -86 133 -139 133 -153 0 -14 -48 -69
-138 -158 l-139 -137 -790 0 c-435 0 -798 3 -807 6 -14 5 -16 40 -16 283 0
153 3 281 7 284 3 4 369 7 811 7 l805 0 134 -132z m86 -692 c37 -16 277 -256
277 -276 0 -8 -62 -76 -138 -152 l-138 -138 -916 0 c-826 0 -916 2 -922 16 -3
9 -6 134 -6 278 0 190 3 265 12 274 19 19 1787 17 1831 -2z m357 -933 c77 -75
140 -143 140 -152 0 -10 -62 -79 -138 -154 l-139 -137 -1025 0 c-926 0 -1026
2 -1032 16 -3 9 -6 134 -6 278 0 190 3 265 12 274 9 9 252 12 1030 12 l1019 0
139 -137z"/>
</g>
</svg>
