<?xml version="1.0" standalone="no"?>
<!DOCTYPE svg PUBLIC "-//W3C//DTD SVG 20010904//EN"
 "http://www.w3.org/TR/2001/REC-SVG-20010904/DTD/svg10.dtd">
<svg version="1.0" xmlns="http://www.w3.org/2000/svg"
 width="500.000000pt" height="500.000000pt" viewBox="0 0 500.000000 500.000000"
 preserveAspectRatio="xMidYMid meet">
<metadata>
Created by potrace 1.14, written by Peter Selinger 2001-2017
</metadata>
<g transform="translate(0.000000,500.000000) scale(0.100000,-0.100000)"
fill="#000000" stroke="none">
<path d="M985 4671 c-91 -33 -139 -63 -205 -130 -71 -72 -102 -123 -131 -218
-17 -53 -19 -87 -17 -235 l3 -173 104 -3 c67 -2 108 1 117 9 11 9 14 43 14
146 0 74 5 155 12 181 40 164 220 249 373 176 96 -45 155 -139 155 -248 0 -35
5 -67 12 -74 14 -14 195 -17 217 -3 20 13 9 200 -15 261 -59 148 -173 257
-322 309 -82 28 -242 29 -317 2z"/>
<path d="M37 3663 c-4 -3 -7 -596 -7 -1318 0 -1006 3 -1314 12 -1323 18 -18
2477 -17 2501 0 16 12 17 101 15 1328 l-3 1315 -1256 3 c-690 1 -1259 -1
-1262 -5z m820 -427 c11 -4 13 -29 11 -113 l-3 -108 -175 0 -175 0 0 110 c0
106 1 109 23 115 28 6 300 3 319 -4z"/>
<path d="M2807 3663 c-4 -3 -7 -165 -7 -359 0 -312 2 -353 16 -358 24 -9 2127
-7 2142 2 9 7 12 86 10 363 l-3 354 -1076 3 c-591 1 -1079 -1 -1082 -5z m1251
-245 c16 -16 16 -200 0 -216 -8 -8 -61 -12 -174 -12 -138 0 -163 2 -168 16
-11 29 -7 199 6 212 8 8 60 12 168 12 108 0 160 -4 168 -12z"/>
<path d="M2813 2703 c-10 -4 -13 -85 -13 -358 0 -313 2 -354 16 -359 20 -8
2118 -8 2138 0 14 5 16 46 16 359 0 313 -2 354 -16 359 -19 7 -2123 7 -2141
-1z m1245 -255 c18 -18 16 -202 -2 -217 -9 -8 -65 -11 -177 -9 l-164 3 -3 104
c-1 58 0 111 2 118 7 18 326 19 344 1z"/>
<path d="M2807 1733 c-4 -3 -7 -162 -7 -353 0 -256 3 -349 12 -358 19 -19
2131 -17 2147 2 8 9 11 113 9 362 l-3 349 -1076 3 c-591 1 -1079 -1 -1082 -5z
m1251 -245 c18 -18 16 -202 -2 -217 -9 -8 -65 -11 -177 -9 l-164 3 -3 109 c-2
81 1 112 10 118 21 13 322 10 336 -4z"/>
<path d="M44 767 c-11 -7 -14 -48 -14 -232 0 -123 3 -230 6 -239 6 -15 232
-16 2464 -16 l2458 0 6 22 c3 13 6 121 6 241 0 165 -3 219 -12 222 -22 9
-4899 10 -4914 2z"/>
</g>
</svg>
