<?xml version="1.0" standalone="no"?>
<!DOCTYPE svg PUBLIC "-//W3C//DTD SVG 20010904//EN"
 "http://www.w3.org/TR/2001/REC-SVG-20010904/DTD/svg10.dtd">
<svg version="1.0" xmlns="http://www.w3.org/2000/svg"
 width="500.000000pt" height="450.000000pt" viewBox="0 0 500.000000 450.000000"
 preserveAspectRatio="xMidYMid meet">
<metadata>
Created by potrace 1.14, written by Peter Selinger 2001-2017
</metadata>
<g transform="translate(0.000000,450.000000) scale(0.100000,-0.100000)"
fill="#000000" stroke="none">
<path d="M985 4421 c-91 -33 -139 -63 -205 -130 -123 -125 -152 -217 -148
-461 l3 -165 104 -3 c67 -2 108 1 117 9 11 9 14 43 14 146 0 74 5 155 12 181
40 164 220 249 373 176 96 -45 155 -139 155 -248 0 -35 5 -67 12 -74 13 -13
183 -17 212 -6 26 10 22 166 -5 246 -54 156 -171 273 -327 327 -82 28 -242 29
-317 2z"/>
<path d="M37 3413 c-4 -3 -7 -596 -7 -1318 0 -1006 3 -1314 12 -1323 18 -18
2477 -17 2501 0 16 12 17 101 15 1328 l-3 1315 -1256 3 c-690 1 -1259 -1
-1262 -5z m820 -427 c11 -5 13 -28 11 -113 l-3 -108 -175 0 -175 0 -3 108 c-2
99 -1 108 17 115 22 8 306 6 328 -2z"/>
<path d="M2807 3413 c-4 -3 -7 -165 -7 -359 0 -312 2 -353 16 -358 24 -9 2127
-7 2142 2 9 7 12 86 10 363 l-3 354 -1076 3 c-591 1 -1079 -1 -1082 -5z m1244
-243 c17 -10 19 -22 19 -109 0 -72 -4 -102 -14 -110 -9 -8 -65 -11 -177 -9
l-164 3 -3 104 c-2 67 1 108 9 117 14 17 299 20 330 4z"/>
<path d="M2812 2448 c-9 -9 -12 -102 -12 -359 0 -307 2 -348 16 -353 20 -8
2118 -8 2138 0 14 5 16 46 16 353 0 257 -3 350 -12 359 -17 17 -2129 17 -2146
0z m1246 -250 c18 -18 16 -202 -2 -217 -9 -8 -65 -11 -177 -9 l-164 3 -3 104
c-1 58 0 111 2 118 7 18 326 19 344 1z"/>
<path d="M2807 1483 c-4 -3 -7 -162 -7 -353 0 -256 3 -349 12 -358 19 -19
2131 -17 2147 2 8 9 11 113 9 362 l-3 349 -1076 3 c-591 1 -1079 -1 -1082 -5z
m1251 -245 c18 -18 16 -202 -2 -217 -9 -8 -65 -11 -177 -9 l-164 3 -3 109 c-2
81 1 112 10 118 21 13 322 10 336 -4z"/>
<path d="M47 522 c-15 -3 -17 -26 -17 -232 0 -126 3 -235 6 -244 6 -15 232
-16 2464 -16 l2458 0 6 22 c3 13 6 121 6 241 0 165 -3 219 -12 222 -14 6
-4884 12 -4911 7z"/>
</g>
</svg>
