<?xml version="1.0" standalone="no"?>
<!DOCTYPE svg PUBLIC "-//W3C//DTD SVG 20010904//EN"
 "http://www.w3.org/TR/2001/REC-SVG-20010904/DTD/svg10.dtd">
<svg version="1.0" xmlns="http://www.w3.org/2000/svg"
 width="500.000000pt" height="504.000000pt" viewBox="0 0 500.000000 504.000000"
 preserveAspectRatio="xMidYMid meet">
<metadata>
Created by potrace 1.14, written by Peter Selinger 2001-2017
</metadata>
<g transform="translate(0.000000,504.000000) scale(0.100000,-0.100000)"
fill="#000000" stroke="none">
<path d="M4112 4737 l-272 -273 0 -134 0 -135 -732 -732 c-403 -403 -740 -733
-748 -733 -8 0 -87 72 -175 160 -88 88 -167 160 -175 160 -24 0 -210 -192
-210 -216 0 -14 28 -48 75 -93 41 -39 75 -79 75 -89 0 -25 -430 -452 -456
-452 -11 0 -38 18 -59 40 -21 22 -46 40 -55 40 -17 0 -1285 -1266 -1317 -1315
-11 -16 -25 -49 -32 -72 -6 -24 -16 -43 -21 -43 -6 0 -10 -33 -10 -74 0 -56 4
-75 15 -80 8 -3 15 -16 15 -29 0 -57 53 -124 278 -350 273 -275 283 -281 427
-281 90 0 106 3 155 28 44 23 181 154 708 679 358 359 652 658 652 665 0 7
-20 35 -45 61 -25 26 -45 57 -45 67 0 23 430 454 452 454 9 0 49 -34 89 -75
40 -41 80 -75 89 -75 23 0 210 191 210 215 0 13 -55 75 -145 165 -91 91 -145
152 -145 165 0 13 244 264 723 743 l723 723 65 9 c35 5 90 10 121 10 31 0 69
5 85 10 40 16 543 520 543 545 0 13 -98 118 -283 303 -156 155 -287 282 -293
282 -5 0 -132 -123 -282 -273z m-2670 -2744 c26 -26 48 -52 48 -57 0 -12
-1176 -1192 -1202 -1207 -14 -8 -27 -1 -63 32 -26 24 -45 50 -45 63 0 15 181
202 598 619 328 328 602 597 607 597 5 0 31 -21 57 -47z m260 -260 c26 -26 48
-52 48 -57 0 -12 -1176 -1192 -1202 -1207 -14 -8 -27 -1 -63 32 -26 24 -45 50
-45 63 0 15 181 202 598 619 328 328 602 597 607 597 5 0 31 -21 57 -47z m260
-260 c26 -26 48 -52 48 -57 0 -12 -1176 -1192 -1202 -1207 -14 -8 -27 -1 -63
32 -26 24 -45 50 -45 63 0 15 181 202 598 619 328 328 602 597 607 597 5 0 31
-21 57 -47z"/>
</g>
</svg>
