<?xml version="1.0" standalone="no"?>
<!DOCTYPE svg PUBLIC "-//W3C//DTD SVG 20010904//EN"
 "http://www.w3.org/TR/2001/REC-SVG-20010904/DTD/svg10.dtd">
<svg version="1.0" xmlns="http://www.w3.org/2000/svg"
 width="500.000000pt" height="500.000000pt" viewBox="0 0 500.000000 500.000000"
 preserveAspectRatio="xMidYMid meet">
<metadata>
Created by potrace 1.14, written by Peter Selinger 2001-2017
</metadata>
<g transform="translate(0.000000,500.000000) scale(0.100000,-0.100000)"
fill="#000000" stroke="none">
<path d="M2219 4003 c-415 -417 -767 -774 -782 -795 -15 -20 -38 -71 -52 -113
l-25 -78 0 -1191 c0 -1303 -3 -1234 58 -1355 35 -69 129 -156 212 -195 l65
-31 1140 0 1140 0 69 34 c130 62 194 146 286 371 12 30 31 73 40 96 10 22 42
96 70 165 29 68 56 128 61 134 5 5 9 15 9 21 0 7 14 43 31 81 28 63 47 106 69
158 44 107 48 117 89 208 17 38 31 74 31 81 0 6 4 16 8 22 5 5 37 77 72 159
35 83 67 154 72 160 4 5 8 15 8 22 0 7 11 36 24 65 44 95 56 130 62 185 4 29
11 56 15 59 15 9 10 382 -6 493 -32 210 -132 339 -313 405 -55 19 -82 20 -809
24 -699 3 -753 4 -753 20 1 9 7 46 15 82 9 36 20 88 25 115 5 28 23 115 40
195 57 270 62 295 70 340 5 25 16 77 25 115 50 221 51 305 2 397 -23 43 -281
308 -301 308 -6 0 -351 -341 -767 -757z"/>
<path d="M7 2953 c-4 -3 -7 -615 -7 -1360 l0 -1353 453 2 452 3 3 1344 c1 985
-1 1347 -9 1357 -9 11 -93 14 -449 14 -240 0 -440 -3 -443 -7z"/>
</g>
</svg>
