<?xml version="1.0" standalone="no"?>
<!DOCTYPE svg PUBLIC "-//W3C//DTD SVG 20010904//EN"
 "http://www.w3.org/TR/2001/REC-SVG-20010904/DTD/svg10.dtd">
<svg version="1.0" xmlns="http://www.w3.org/2000/svg"
 width="500.000000pt" height="500.000000pt" viewBox="0 0 500.000000 500.000000"
 preserveAspectRatio="xMidYMid meet">
<metadata>
Created by potrace 1.14, written by Peter Selinger 2001-2017
</metadata>
<g transform="translate(0.000000,500.000000) scale(0.100000,-0.100000)"
fill="#000000" stroke="none">
<path d="M45 4943 c-23 -22 -19 -218 5 -233 8 -5 44 -10 80 -10 36 0 70 -4 76
-8 33 -22 34 -47 34 -854 0 -711 2 -806 16 -826 l15 -22 829 0 c612 0 836 -3
855 -12 29 -13 34 -28 37 -113 3 -52 6 -61 28 -72 38 -19 194 -17 214 3 14 14
16 82 16 604 0 522 -2 590 -16 604 -12 12 -37 16 -112 16 -53 0 -104 -5 -112
-10 -11 -6 -16 -32 -18 -90 -4 -71 -7 -83 -27 -96 -34 -22 -881 -17 -895 6 -6
9 -10 183 -10 423 0 479 -8 447 109 447 96 0 101 6 101 130 0 76 -4 102 -16
114 -14 14 -82 16 -604 16 -535 0 -590 -2 -605 -17z"/>
<path d="M2780 4008 c-11 -4 -25 -19 -30 -33 -6 -16 -10 -243 -10 -586 0 -560
2 -590 34 -611 18 -12 175 -9 199 3 33 18 37 28 37 99 0 36 5 72 10 80 8 13
69 15 450 15 426 0 442 -1 456 -19 12 -16 14 -90 14 -418 l0 -399 -25 -24
c-21 -21 -33 -25 -89 -25 -90 0 -96 -8 -96 -126 0 -53 5 -104 10 -115 10 -18
28 -19 604 -19 540 0 595 1 607 17 10 11 14 46 14 115 0 120 -6 128 -100 128
-51 0 -65 4 -83 23 l-22 23 0 801 c0 539 -3 810 -11 831 -6 17 -20 32 -32 36
-12 3 -396 6 -852 6 -633 0 -834 3 -843 12 -7 7 -12 40 -12 80 0 72 -18 107
-57 109 -68 5 -157 3 -173 -3z"/>
<path d="M4378 1499 c-31 -17 -171 -215 -285 -399 -116 -189 -182 -330 -209
-453 -17 -74 -17 -81 1 -170 36 -182 143 -322 304 -398 165 -78 383 -62 534
41 124 83 221 238 237 377 9 82 -1 182 -24 235 -86 201 -140 300 -279 508
-110 164 -172 247 -197 260 -24 13 -60 12 -82 -1z"/>
</g>
</svg>
