<?xml version="1.0" standalone="no"?>
<!DOCTYPE svg PUBLIC "-//W3C//DTD SVG 20010904//EN"
 "http://www.w3.org/TR/2001/REC-SVG-20010904/DTD/svg10.dtd">
<svg version="1.0" xmlns="http://www.w3.org/2000/svg"
 width="500.000000pt" height="500.000000pt" viewBox="0 0 500.000000 500.000000"
 preserveAspectRatio="xMidYMid meet">
<metadata>
Created by potrace 1.14, written by Peter Selinger 2001-2017
</metadata>
<g transform="translate(0.000000,500.000000) scale(0.100000,-0.100000)"
fill="#000000" stroke="none">
<path d="M0 4176 l0 -574 22 -6 c13 -3 513 -6 1112 -6 805 0 1092 2 1102 11
12 9 14 108 14 580 l0 569 -1125 0 -1125 0 0 -574z"/>
<path d="M2750 4181 c0 -474 2 -570 14 -580 10 -9 292 -12 1101 -11 598 0
1098 3 1111 6 l24 6 0 574 0 574 -1125 0 -1125 0 0 -569z"/>
<path d="M18 3093 c-17 -4 -18 -40 -18 -573 l0 -568 23 -6 c12 -3 203 -6 424
-6 396 0 403 0 424 21 16 16 20 29 15 51 -3 17 -6 261 -6 544 0 453 -2 514
-16 528 -14 14 -65 16 -422 15 -224 -1 -415 -3 -424 -6z"/>
<path d="M1392 3088 c-17 -17 -17 -1119 0 -1136 17 -17 2199 -17 2216 0 16 16
17 1099 2 1129 -10 19 -33 19 -1108 19 -841 0 -1101 -3 -1110 -12z"/>
<path d="M4136 3078 c-14 -20 -16 -90 -16 -568 0 -411 3 -549 12 -558 9 -9
113 -12 409 -12 218 0 411 3 428 6 l31 7 0 561 0 561 -27 13 c-20 9 -127 12
-424 12 l-398 0 -15 -22z"/>
<path d="M22 1433 l-22 -4 2 -572 c2 -442 6 -571 15 -570 7 2 10 -4 7 -12 -5
-13 125 -15 1098 -15 l1105 0 11 39 c9 27 12 197 12 574 0 474 -2 537 -16 551
-14 14 -126 16 -1102 15 -598 -1 -1097 -4 -1110 -6z"/>
<path d="M2768 1429 c-17 -9 -18 -47 -18 -556 0 -400 3 -555 12 -580 l12 -33
1093 0 c965 0 1093 2 1093 15 0 8 9 15 20 15 20 0 20 7 20 569 l0 568 -37 7
c-67 11 -2176 6 -2195 -5z"/>
</g>
</svg>
