<?xml version="1.0" standalone="no"?>
<!DOCTYPE svg PUBLIC "-//W3C//DTD SVG 20010904//EN"
 "http://www.w3.org/TR/2001/REC-SVG-20010904/DTD/svg10.dtd">
<svg version="1.0" xmlns="http://www.w3.org/2000/svg"
 width="500.000000pt" height="500.000000pt" viewBox="0 0 500.000000 500.000000"
 preserveAspectRatio="xMidYMid meet">
<metadata>
Created by potrace 1.14, written by Peter Selinger 2001-2017
</metadata>
<g transform="translate(0.000000,500.000000) scale(0.100000,-0.100000)"
fill="#000000" stroke="none">
<path d="M0 4176 l0 -574 23 -6 c13 -3 513 -6 1111 -6 815 -1 1091 2 1102 11
12 10 14 104 14 580 l0 569 -1125 0 -1125 0 0 -574z"/>
<path d="M2750 4181 c0 -476 2 -570 14 -580 11 -9 287 -12 1102 -11 598 0
1098 3 1111 6 l23 6 0 574 0 574 -1125 0 -1125 0 0 -569z"/>
<path d="M18 3093 c-17 -4 -18 -40 -18 -573 l0 -568 23 -6 c12 -3 205 -6 428
-6 341 0 408 2 418 14 9 11 12 147 12 538 -1 288 -1 535 -1 550 0 59 7 58
-438 57 -224 -1 -415 -3 -424 -6z"/>
<path d="M1392 3088 c-17 -17 -17 -1119 0 -1136 17 -17 2199 -17 2216 0 16 16
17 1099 2 1129 -10 19 -33 19 -1108 19 -841 0 -1101 -3 -1110 -12z"/>
<path d="M4136 3078 c-14 -20 -16 -90 -16 -565 0 -479 2 -543 16 -557 13 -14
64 -16 408 -16 217 0 408 3 425 6 l31 7 0 561 0 561 -27 13 c-20 9 -127 12
-424 12 l-398 0 -15 -22z"/>
<path d="M18 1433 c-17 -4 -18 -41 -18 -589 l0 -584 1113 0 1114 0 11 39 c9
27 12 197 12 574 0 474 -2 537 -16 551 -14 14 -127 16 -1107 15 -601 -1 -1100
-3 -1109 -6z"/>
<path d="M2768 1429 c-17 -9 -18 -47 -18 -556 0 -400 3 -555 12 -580 l12 -33
1092 0 c961 0 1093 2 1098 15 3 8 12 15 21 15 13 0 15 65 15 569 l0 568 -37 7
c-67 11 -2176 6 -2195 -5z"/>
</g>
</svg>
