<?xml version="1.0" standalone="no"?>
<!DOCTYPE svg PUBLIC "-//W3C//DTD SVG 20010904//EN"
 "http://www.w3.org/TR/2001/REC-SVG-20010904/DTD/svg10.dtd">
<svg version="1.0" xmlns="http://www.w3.org/2000/svg"
 width="500.000000pt" height="500.000000pt" viewBox="0 0 500.000000 500.000000"
 preserveAspectRatio="xMidYMid meet">
<metadata>
Created by potrace 1.14, written by Peter Selinger 2001-2017
</metadata>
<g transform="translate(0.000000,500.000000) scale(0.100000,-0.100000)"
fill="#000000" stroke="none">
<path d="M2065 4560 l-400 -400 0 -50 0 -50 1200 -1200 1200 -1200 55 0 54 0
384 383 c211 210 390 394 398 409 18 34 18 72 0 106 -8 15 -72 84 -144 155
-166 164 -149 162 -405 37 -206 -101 -241 -109 -283 -63 -34 36 -40 70 -21
107 90 178 187 387 187 405 0 12 -21 44 -47 73 -75 80 -595 598 -622 619 -25
20 -90 26 -106 10 -6 -5 -68 -35 -140 -66 -71 -32 -134 -61 -140 -66 -5 -4
-33 -16 -62 -27 -50 -19 -53 -19 -90 -2 -27 12 -44 28 -53 50 -16 38 -10 59
50 185 135 284 136 288 121 328 -6 15 -153 169 -328 342 l-318 315 -45 0 -44
0 -401 -400z"/>
<path d="M903 3398 c-204 -203 -314 -321 -318 -338 -3 -15 -1 -39 5 -55 6 -16
149 -168 318 -338 306 -307 307 -308 307 -350 -1 -48 5 -39 -315 -437 -37 -47
-106 -132 -152 -189 -259 -325 -463 -581 -540 -676 -147 -182 -186 -290 -175
-490 5 -115 33 -193 97 -279 80 -107 210 -194 317 -211 23 -4 47 -13 54 -21
16 -20 165 -20 172 0 3 8 25 17 49 21 92 14 176 69 479 312 163 131 325 261
359 288 205 161 271 214 311 247 24 20 126 102 227 182 176 141 184 146 229
146 l46 0 317 -315 c284 -283 320 -315 349 -315 18 0 42 5 54 11 36 19 605
590 618 621 29 70 83 11 -1196 1288 -656 656 -1200 1197 -1207 1201 -7 5 -31
9 -53 9 -38 0 -47 -7 -352 -312z m-18 -2429 c94 -57 132 -135 121 -243 -9 -91
-66 -163 -152 -196 -71 -26 -111 -25 -176 3 -119 53 -178 172 -144 290 19 66
52 108 115 148 39 24 56 29 116 29 60 0 76 -4 120 -31z"/>
</g>
</svg>
