<?xml version="1.0" standalone="no"?>
<!DOCTYPE svg PUBLIC "-//W3C//DTD SVG 20010904//EN"
 "http://www.w3.org/TR/2001/REC-SVG-20010904/DTD/svg10.dtd">
<svg version="1.0" xmlns="http://www.w3.org/2000/svg"
 width="500.000000pt" height="500.000000pt" viewBox="0 0 500.000000 500.000000"
 preserveAspectRatio="xMidYMid meet">
<metadata>
Created by potrace 1.14, written by Peter Selinger 2001-2017
</metadata>
<g transform="translate(0.000000,500.000000) scale(0.100000,-0.100000)"
fill="#000000" stroke="none">
<path d="M3854 4631 c-52 -13 -90 -45 -286 -240 -121 -119 -188 -193 -188
-206 0 -24 1117 -1145 1140 -1145 20 0 381 364 414 417 59 95 55 250 -9 347
-48 75 -759 778 -815 807 -35 18 -64 23 -135 25 -49 2 -104 -1 -121 -5z m190
-301 c26 -12 145 -124 328 -307 334 -337 344 -351 299 -455 -25 -59 -70 -95
-127 -104 -96 -14 -101 -10 -431 319 -261 261 -303 308 -312 344 -16 60 -4
119 33 161 55 63 134 79 210 42z"/>
<path d="M1627 2452 c-1055 -1055 -1587 -1594 -1587 -1607 0 -13 80 -100 223
-243 197 -197 226 -222 254 -222 26 0 152 26 220 46 8 2 13 22 13 55 0 87 48
138 145 154 22 4 63 13 90 20 28 7 67 16 88 19 l37 7 -1 49 c-2 57 15 104 45
123 20 13 44 20 224 63 37 9 72 21 78 25 7 6 9 29 6 58 -3 40 0 54 18 79 13
17 35 35 49 40 47 18 135 40 179 46 24 4 60 13 79 21 34 14 35 17 29 54 -11
73 33 134 106 147 18 3 53 12 78 19 25 7 66 16 92 20 64 8 80 26 73 79 -11 76
37 123 145 145 30 6 91 19 135 29 l80 17 -3 52 c-6 93 40 139 158 158 46 7
138 31 177 46 20 7 21 13 16 63 -5 53 -4 57 28 89 27 26 50 37 114 51 44 10
111 27 148 38 l69 20 -7 46 c-5 39 -2 53 17 82 14 20 38 39 58 46 61 21 144
42 190 49 74 10 90 26 90 90 0 76 32 111 115 130 58 12 119 27 198 46 l37 10
0 59 c0 55 3 62 35 95 20 19 45 37 58 39 12 2 54 12 92 21 39 10 90 20 115 24
30 4 46 11 48 22 3 17 -1035 1069 -1054 1069 -5 0 -723 -714 -1597 -1588z"/>
</g>
</svg>
