<?xml version="1.0" standalone="no"?>
<!DOCTYPE svg PUBLIC "-//W3C//DTD SVG 20010904//EN"
 "http://www.w3.org/TR/2001/REC-SVG-20010904/DTD/svg10.dtd">
<svg version="1.0" xmlns="http://www.w3.org/2000/svg"
 width="500.000000pt" height="500.000000pt" viewBox="0 0 500.000000 500.000000"
 preserveAspectRatio="xMidYMid meet">
<metadata>
Created by potrace 1.14, written by Peter Selinger 2001-2017
</metadata>
<g transform="translate(0.000000,500.000000) scale(0.100000,-0.100000)"
fill="#000000" stroke="none">
<path d="M1625 4941 c-89 -12 -296 -59 -325 -75 -14 -7 -46 -18 -72 -25 -26
-6 -62 -20 -80 -30 -18 -10 -44 -22 -58 -26 -29 -9 -222 -117 -265 -148 -105
-77 -149 -113 -223 -182 -303 -285 -497 -655 -553 -1055 -12 -87 -26 -151 -34
-161 -21 -22 -21 -221 -1 -238 8 -7 19 -49 25 -99 20 -154 30 -205 60 -302 67
-217 134 -354 268 -550 9 -14 48 -61 85 -106 161 -192 364 -354 573 -457 159
-78 266 -118 395 -146 47 -11 110 -25 140 -33 38 -9 131 -13 305 -13 225 0
259 2 335 22 47 12 112 28 145 37 64 16 191 58 221 74 11 6 51 25 89 43 113
53 341 198 360 229 13 20 54 10 79 -21 24 -29 26 -37 26 -139 l0 -109 689
-690 c461 -462 698 -692 716 -697 26 -6 42 8 221 188 108 108 194 202 194 212
0 28 -1356 1382 -1403 1401 -26 10 -54 13 -91 9 -70 -8 -153 17 -168 52 -13
28 0 59 52 129 90 120 219 347 220 387 0 7 12 36 25 63 14 28 25 58 25 68 0 9
11 48 24 86 13 37 27 92 30 122 4 30 14 97 23 149 8 52 15 142 15 200 1 133
-35 393 -67 488 -14 40 -25 79 -25 86 0 34 -92 241 -159 357 -138 243 -389
499 -630 646 -20 11 -74 40 -121 63 -203 100 -234 111 -465 167 -98 23 -134
26 -325 29 -118 1 -242 -1 -275 -5z m425 -572 c162 -26 349 -92 450 -159 104
-69 132 -90 189 -139 74 -64 178 -183 225 -256 65 -101 139 -256 151 -316 3
-19 16 -63 28 -99 20 -59 22 -86 22 -280 0 -194 -2 -221 -22 -280 -12 -36 -25
-80 -28 -99 -12 -57 -75 -193 -138 -296 -36 -59 -148 -193 -209 -251 -108
-103 -329 -240 -419 -259 -18 -4 -51 -16 -71 -26 -23 -12 -98 -26 -207 -40
l-170 -22 -161 22 c-90 12 -181 31 -206 42 -25 10 -51 19 -58 19 -7 0 -34 11
-62 24 -27 14 -65 31 -84 40 -150 67 -391 281 -477 425 -96 161 -132 240 -169
376 -37 136 -47 225 -40 380 9 234 74 432 211 650 26 40 154 194 170 203 8 4
35 27 62 52 26 25 75 63 108 84 33 22 71 47 85 56 148 96 452 173 650 165 52
-2 129 -9 170 -16z"/>
</g>
</svg>
