<?xml version="1.0" standalone="no"?>
<!DOCTYPE svg PUBLIC "-//W3C//DTD SVG 20010904//EN"
 "http://www.w3.org/TR/2001/REC-SVG-20010904/DTD/svg10.dtd">
<svg version="1.0" xmlns="http://www.w3.org/2000/svg"
 width="500.000000pt" height="510.000000pt" viewBox="0 0 500.000000 510.000000"
 preserveAspectRatio="xMidYMid meet">
<metadata>
Created by potrace 1.14, written by Peter Selinger 2001-2017
</metadata>
<g transform="translate(0.000000,510.000000) scale(0.100000,-0.100000)"
fill="#000000" stroke="none">
<path d="M0 4250 l0 -850 813 0 c446 0 818 -4 825 -8 10 -7 12 -183 10 -848
l-3 -839 -820 -5 c-451 -3 -821 -6 -822 -8 -2 -1 -3 -382 -3 -847 l0 -845 825
0 825 0 0 23 c0 12 0 387 0 832 0 641 2 814 12 828 12 16 66 17 848 15 l835
-3 3 -847 2 -848 825 0 825 0 0 845 c0 465 -1 846 -2 847 -2 2 -372 5 -823 8
l-820 5 -3 835 c-2 776 -1 836 15 848 13 9 194 12 825 12 l808 0 0 850 0 850
-820 0 c-451 0 -821 -1 -822 -2 -2 -2 -5 -383 -8 -848 l-5 -845 -839 -3 c-665
-2 -841 0 -848 10 -4 7 -8 390 -8 851 l0 837 -825 0 -825 0 0 -850z"/>
</g>
</svg>
