<?xml version="1.0" standalone="no"?>
<!DOCTYPE svg PUBLIC "-//W3C//DTD SVG 20010904//EN"
 "http://www.w3.org/TR/2001/REC-SVG-20010904/DTD/svg10.dtd">
<svg version="1.0" xmlns="http://www.w3.org/2000/svg"
 width="500.000000pt" height="510.000000pt" viewBox="0 0 500.000000 510.000000"
 preserveAspectRatio="xMidYMid meet">
<metadata>
Created by potrace 1.14, written by Peter Selinger 2001-2017
</metadata>
<g transform="translate(0.000000,510.000000) scale(0.100000,-0.100000)"
fill="#000000" stroke="none">
<path d="M0 4250 l0 -850 809 0 c446 0 817 -3 825 -6 14 -6 16 -96 16 -850 l0
-844 -802 0 c-442 0 -813 -3 -825 -6 l-23 -6 0 -844 0 -844 825 0 c779 0 825
1 825 18 0 9 0 380 0 823 0 515 3 816 10 833 l10 26 837 -2 838 -3 3 -847 2
-848 825 0 825 0 0 845 c0 465 -1 846 -2 847 -2 2 -372 5 -823 8 l-820 5 -3
835 c-2 776 -1 836 15 848 13 9 194 12 825 12 l808 0 0 850 0 850 -819 0
c-737 0 -819 -2 -825 -16 -3 -9 -6 -391 -6 -850 l0 -834 -844 0 c-760 0 -844
2 -850 16 -3 9 -6 391 -6 850 l0 834 -825 0 -825 0 0 -850z"/>
</g>
</svg>
