<?xml version="1.0" standalone="no"?>
<!DOCTYPE svg PUBLIC "-//W3C//DTD SVG 20010904//EN"
 "http://www.w3.org/TR/2001/REC-SVG-20010904/DTD/svg10.dtd">
<svg version="1.0" xmlns="http://www.w3.org/2000/svg"
 width="500.000000pt" height="496.000000pt" viewBox="0 0 500.000000 496.000000"
 preserveAspectRatio="xMidYMid meet">
<metadata>
Created by potrace 1.14, written by Peter Selinger 2001-2017
</metadata>
<g transform="translate(0.000000,496.000000) scale(0.100000,-0.100000)"
fill="#000000" stroke="none">
<path d="M2476 4945 c-11 -8 -32 -15 -46 -15 -41 0 -115 -55 -146 -108 -27
-45 -28 -52 -31 -212 -4 -194 -3 -193 -109 -204 -71 -7 -143 -23 -259 -58
-304 -90 -562 -239 -778 -448 -152 -147 -317 -365 -317 -420 0 -20 9 -20 718
-20 394 0 722 -4 729 -8 6 -4 13 -18 14 -32 1 -14 1 -287 1 -606 l-2 -582
-605 -4 c-425 -3 -608 -7 -616 -15 -16 -16 -15 -448 1 -468 11 -13 99 -15 614
-17 l601 -3 5 -860 c3 -473 6 -861 8 -862 1 -2 110 -3 242 -3 132 0 241 1 242
3 2 1 5 389 8 862 l5 860 602 5 c408 3 605 8 613 16 7 7 9 87 8 240 l-3 229
-607 5 c-333 3 -609 8 -612 11 -3 3 -6 277 -6 609 -1 483 2 605 12 611 7 5
336 9 731 9 792 0 736 -5 701 63 -97 188 -349 448 -579 598 -214 139 -543 263
-759 285 -105 11 -105 10 -109 204 -4 163 -4 166 -33 212 -36 57 -85 96 -133
104 -20 3 -46 12 -58 20 -27 17 -23 17 -47 -1z"/>
<path d="M42 2708 c-9 -9 -12 -321 -12 -1344 0 -733 3 -1339 6 -1348 5 -14 36
-16 245 -16 l239 0 0 354 c0 195 3 361 6 370 5 14 36 16 239 16 187 0 235 -3
244 -14 8 -10 12 -108 11 -347 0 -184 -1 -344 0 -356 l0 -23 244 0 244 0 6 23
c10 38 7 1164 -4 1191 l-10 26 -474 0 c-418 0 -476 2 -490 16 -14 14 -16 93
-16 724 0 390 -3 715 -6 724 -5 14 -35 16 -233 16 -163 0 -230 -3 -239 -12z"/>
<path d="M4486 2704 c-3 -9 -6 -334 -6 -724 0 -631 -2 -710 -16 -724 -14 -14
-72 -16 -490 -16 l-474 0 -10 -26 c-11 -28 -14 -1153 -4 -1192 l6 -22 242 2
241 3 3 354 c1 241 6 359 13 368 9 10 62 13 244 13 203 0 234 -2 239 -16 3 -9
6 -175 6 -370 l0 -354 239 0 c209 0 240 2 245 16 3 9 6 615 6 1348 0 1023 -3
1335 -12 1344 -9 9 -76 12 -239 12 -198 0 -228 -2 -233 -16z"/>
</g>
</svg>
