<?xml version="1.0" standalone="no"?>
<!DOCTYPE svg PUBLIC "-//W3C//DTD SVG 20010904//EN"
 "http://www.w3.org/TR/2001/REC-SVG-20010904/DTD/svg10.dtd">
<svg version="1.0" xmlns="http://www.w3.org/2000/svg"
 width="500.000000pt" height="535.000000pt" viewBox="0 0 500.000000 535.000000"
 preserveAspectRatio="xMidYMid meet">
<metadata>
Created by potrace 1.14, written by Peter Selinger 2001-2017
</metadata>
<g transform="translate(0.000000,535.000000) scale(0.100000,-0.100000)"
fill="#000000" stroke="none">
<path d="M4210 5340 c0 -5 -13 -16 -29 -25 -17 -8 -108 -88 -203 -177 -306
-286 -627 -588 -813 -763 -99 -94 -283 -267 -410 -385 -126 -118 -290 -272
-364 -342 -75 -71 -142 -128 -151 -128 -17 0 -103 79 -1199 1108 -102 96 -202
182 -223 193 -48 25 -118 24 -167 -1 -45 -23 -539 -478 -595 -549 -25 -30 -34
-128 -16 -170 6 -16 106 -118 221 -227 143 -135 209 -204 209 -218 0 -14 -68
-85 -211 -220 -116 -109 -215 -210 -220 -223 -5 -13 -9 -52 -9 -86 l0 -61 113
-111 c61 -61 160 -157 219 -212 66 -62 108 -109 108 -121 0 -12 -50 -66 -132
-143 -282 -263 -296 -278 -306 -325 -12 -53 -1 -114 24 -145 22 -27 159 -159
384 -369 85 -80 236 -221 335 -315 205 -193 522 -491 895 -840 140 -131 291
-273 335 -316 135 -130 140 -133 214 -137 41 -3 78 1 98 10 18 7 150 123 293
258 144 135 278 260 298 279 21 19 102 95 182 170 80 75 287 269 460 431 173
162 396 372 495 465 99 94 250 235 335 315 348 325 536 506 559 537 29 39 39
123 22 176 -9 26 -66 86 -222 232 -115 109 -209 204 -209 214 0 9 96 108 214
219 162 153 216 209 221 232 4 17 13 34 21 37 15 6 20 53 5 53 -5 0 -16 17
-24 39 -11 27 -74 94 -224 236 -114 108 -209 205 -211 215 -2 12 59 76 198
206 111 103 208 201 217 218 21 41 21 157 0 189 -33 51 -541 528 -587 552 -16
8 -30 20 -30 25 0 6 -27 10 -60 10 -33 0 -60 -4 -60 -10z m196 -547 c63 -59
114 -114 114 -123 0 -10 -93 -104 -207 -211 -115 -107 -282 -264 -373 -350
-91 -86 -285 -268 -431 -405 -147 -137 -368 -345 -492 -461 -159 -150 -233
-213 -249 -213 -15 0 -61 35 -133 101 -60 55 -114 107 -119 116 -9 17 16 42
274 282 80 74 215 201 300 281 85 80 261 245 390 365 129 121 309 290 400 376
284 268 374 349 393 349 10 0 70 -48 133 -107z m-3558 -476 c131 -125 377
-356 608 -573 931 -870 1036 -971 1032 -988 -4 -17 -234 -236 -248 -236 -10 0
-320 284 -535 491 -97 93 -378 357 -876 823 -313 293 -350 331 -343 349 9 24
233 227 250 227 9 0 59 -42 112 -93z m3555 -554 c69 -66 112 -115 112 -127 0
-12 -58 -74 -160 -169 -88 -83 -230 -216 -315 -297 -85 -80 -234 -220 -330
-310 -96 -90 -244 -229 -328 -308 -444 -420 -599 -562 -614 -562 -17 0 -258
215 -258 230 0 14 53 65 521 501 91 85 242 226 335 314 741 700 889 835 910
835 8 0 65 -48 127 -107z m-3599 -440 c58 -52 456 -426 881 -828 88 -83 237
-223 330 -310 350 -327 475 -449 475 -461 0 -14 -233 -234 -248 -234 -18 0
-15 -2 -843 774 -134 126 -316 298 -404 381 -88 83 -234 221 -325 305 -162
152 -189 179 -190 191 0 12 242 239 255 239 2 0 33 -26 69 -57z m3599 -594
c79 -74 117 -118 115 -129 -2 -10 -84 -94 -183 -186 -99 -92 -261 -245 -360
-339 -99 -94 -255 -241 -346 -326 -324 -302 -636 -595 -735 -691 -67 -66 -108
-98 -123 -98 -30 0 -249 197 -250 226 -1 21 71 92 529 519 135 125 286 267
335 314 50 47 153 144 230 215 77 71 178 166 225 211 241 231 421 395 432 395
8 0 66 -50 131 -111z m-3583 -452 c36 -35 178 -169 316 -298 463 -433 888
-832 979 -920 50 -47 154 -146 233 -219 78 -74 142 -139 142 -146 0 -11 -65
-76 -187 -188 -34 -31 -59 -46 -72 -44 -11 2 -62 44 -113 94 -84 82 -358 339
-892 838 -105 98 -263 247 -351 331 -88 83 -211 198 -272 256 -70 64 -113 112
-113 124 -1 26 217 234 245 235 11 0 48 -28 85 -63z"/>
</g>
</svg>
