<?xml version="1.0" standalone="no"?>
<!DOCTYPE svg PUBLIC "-//W3C//DTD SVG 20010904//EN"
 "http://www.w3.org/TR/2001/REC-SVG-20010904/DTD/svg10.dtd">
<svg version="1.0" xmlns="http://www.w3.org/2000/svg"
 width="500.000000pt" height="500.000000pt" viewBox="0 0 500.000000 500.000000"
 preserveAspectRatio="xMidYMid meet">
<metadata>
Created by potrace 1.14, written by Peter Selinger 2001-2017
</metadata>
<g transform="translate(0.000000,500.000000) scale(0.100000,-0.100000)"
fill="#000000" stroke="none">
<path d="M2806 4178 c-42 -63 -95 -126 -234 -279 -201 -221 -265 -355 -265
-559 0 -160 44 -279 142 -379 172 -176 478 -213 721 -87 65 34 169 135 198
193 52 101 66 163 66 283 0 136 -22 219 -90 340 -46 81 -101 146 -294 345 -64
66 -129 137 -144 158 -16 20 -37 37 -47 37 -11 0 -32 -21 -53 -52z"/>
<path d="M1035 3998 c-57 -87 -143 -185 -424 -489 -339 -365 -482 -596 -551
-893 -33 -140 -34 -390 -1 -516 61 -236 180 -413 369 -544 60 -42 204 -110
297 -139 78 -25 235 -47 340 -47 107 0 293 25 344 46 18 8 40 14 48 14 31 0
182 74 268 131 223 148 363 381 386 643 15 171 -9 356 -67 531 -99 298 -235
491 -713 1010 -40 44 -112 128 -158 188 -47 59 -91 107 -98 107 -7 0 -25 -19
-40 -42z"/>
<path d="M4053 2842 c-33 -58 -184 -244 -297 -367 -328 -354 -434 -548 -467
-855 -22 -211 46 -442 173 -585 97 -109 217 -184 384 -241 76 -27 86 -28 289
-28 202 0 213 1 286 26 279 97 441 256 520 508 21 66 23 94 23 235 0 142 -3
169 -26 245 -74 244 -198 427 -511 754 -89 93 -196 209 -237 258 -86 101 -104
107 -137 50z"/>
</g>
</svg>
